<?xml version="1.0" encoding="utf-8"?>
<!-- Generator: Adobe Illustrator 24.0.2, SVG Export Plug-In . SVG Version: 6.00 Build 0)  -->
<svg version="1.1" id="_x31_" xmlns="http://www.w3.org/2000/svg" xmlns:xlink="http://www.w3.org/1999/xlink" x="0px" y="0px"
	 viewBox="0 0 311.2521667 103.0802002" style="enable-background:new 0 0 311.2521667 103.0802002;" xml:space="preserve">
<style type="text/css">
	.st0{fill-rule:evenodd;clip-rule:evenodd;fill:#FFFFFF;}
</style>
<path class="st0" d="M159.7010956,76.6830978V61.2411003c-0.1320953-0.1320992-0.2639008-0.1320992-0.2639008-0.1320992
	l-5.9391937,0.7919998v1.5836983l2.5075989,0.6599007v11.0866013c-0.7917023,0.5278015-1.5837097,0.7919998-2.3757019,1.1876984
	c-0.7918091,0.2641983-1.5838013,0.3960037-2.1116028,0.3960037c-1.0558929,0-1.7158051-0.2639008-2.2438965-0.7919998
	c-0.3957062-0.5278015-0.6596069-1.4516068-0.6596069-2.6396027c0-1.9796982,0-3.959404,0-5.9392014
	c0-1.9796982,0-3.9594002,0-5.9390984l-0.2641907-0.132103l-5.9391022,0.7920036V63.7486
	c0.3959961,0.1320992,0.7919922,0.2638969,1.1876984,0.3959999c0.3959961,0.1317978,0.7919922,0.2639008,1.1880035,0.3956985
	v10.6906052c0,1.8478928,0.3956909,3.1676941,1.3194885,3.8275986c0.9241028,0.7918015,2.1118011,1.0559006,3.6955109,1.0559006
	c0.5280914,0,1.0558929,0,1.7157898-0.132103c0.6600037-0.1319962,1.3199005-0.1319962,1.8480072-0.2639008
	c0.9237976-0.7919998,1.7158051-1.5839996,2.6396027-2.5077972c0,0,0,0,0.1320953,0l0.7920074,2.6397018l0.2639008,0.1319962
	l5.4112854-0.7919998v-1.5837021c-0.5277863-0.1320953-0.9240875-0.2639008-1.451889-0.2639008
	C160.6248932,76.9469986,160.0970917,76.8152008,159.7010956,76.6830978L159.7010956,76.6830978L159.7010956,76.6830978
	L159.7010956,76.6830978z M63.3522987,85.9220963c9.502903-0.9237976,17.5538979-9.2389984,20.9855003-20.7215958
	c0.132103-0.3960037-0.1317978-0.7919998-0.5278015-0.9237976h-0.1320953
	c-6.4670029-0.9241028-13.3302002-1.5840034-20.3256035-1.5840034c-0.3959999,0-0.7919998,0.3959999-0.7919998,0.7919998l0,0
	v21.7775002C62.4285011,85.5261002,62.824501,85.9220963,63.3522987,85.9220963L63.3522987,85.9220963L63.3522987,85.9220963
	L63.3522987,85.9220963z M113.1109009,34.4480019c-0.3960037-0.2639008-0.9238052-0.3957024-1.3198013-0.1318016
	c-6.4673004,3.6954994-14.9141998,6.5990982-24.5488968,8.4469986c-0.6599045,0.1318016-0.9241028,0.6595993-0.9241028,1.3195
	c0.5278015,2.7717018,0.7919998,5.5433998,0.7919998,8.4470024c0,3.1676979-0.2641983,6.3350983-0.9241028,9.2388992
	c-0.1317978,0.6599007,0.2642059,1.1876984,0.9241028,1.3198013c9.3708038,1.8476944,17.6858978,4.6194,24.0209961,8.1828003
	c0.3960037,0.2639008,0.9239044,0.1320953,1.1877975-0.132103c6.335701-5.4115982,9.6352005-11.8782997,9.6352005-18.6096992
	C122.2176971,45.9305992,119.0499954,39.7275009,113.1109009,34.4480019L113.1109009,34.4480019L113.1109009,34.4480019
	L113.1109009,34.4480019z M190.3217926,54.1137009c-0.5280914,0.5277977-0.7919922,1.0559006-0.7919922,1.8479004
	c0,0.6598969,0.2639008,1.3197975,0.6598969,1.847599c0.3959961,0.5280991,1.0558929,0.7919998,1.8479004,0.7919998
	c0.7917023,0,1.3195038-0.2639008,1.8475952-0.7919998c0.5281067-0.5278015,0.7920074-1.1877022,0.6598969-1.847599
	c0-0.6599007-0.2639008-1.3198013-0.6598969-1.8479004c-0.5278015-0.5279007-1.0558929-0.7919998-1.8475952-0.7919998
	C191.509491,53.3218994,190.8492889,53.5858002,190.3217926,54.1137009L190.3217926,54.1137009L190.3217926,54.1137009
	L190.3217926,54.1137009z M194.1490936,69.0280991c0-2.6399002,0-5.2794991,0-7.9190979l-0.2639008-0.132103l-5.9391022,0.9241028
	v1.5836983c0.3957062,0.1320992,0.7917023,0.2639008,1.1876984,0.3959999
	c0.3957062,0.1317978,0.7920074,0.2639008,1.1877136,0.3956985v12.6709061l-2.7714081,1.0558929
	c0,0.5278015,0,1.0559006,0.1318054,1.4516068l9.2389984-0.0003052c0-0.2639008,0-0.5278015,0-0.7916946
	c0-0.2642059,0-0.5281067,0-0.7920074l-2.7714996-0.9237976C194.1490936,74.3074036,194.1490936,71.6675034,194.1490936,69.0280991
	L194.1490936,69.0280991L194.1490936,69.0280991L194.1490936,69.0280991z M215.0027924,61.3728981l-1.9796906,0.132103
	c-0.6597137,0-1.4517059,0-1.9795074,0.1317978c-0.6598969,0-1.0558929,0-1.3197937,0v1.584301l2.2435913,0.7917023
	c-0.1320953,0.1320953-0.2639008,0.5280991-0.3959961,1.0559006c-0.1318054,0.5280991-0.395401,1.1879959-0.6598969,1.9796982
	c-0.2639008,0.7919998-0.5278015,1.5839996-0.7917023,2.3757019l-0.7920074,2.3757935
	c-0.2639008,0.7920074-0.5278015,1.4519043-0.6598969,1.9797058c-0.1320953,0.3959961-0.2639008,0.6598969-0.3959961,1.0559006
	l-0.1327057-0.0003052l-3.4315948-9.2389984c-0.2639008-0.6598969-0.5278015-1.4518967-0.6596069-2.1117973
	c-0.1320953-0.6599007-0.2641907-1.3198013-0.3959961-1.979702l-6.0711975,0.2642021v1.5836983l1.8479004,0.6598969
	c0.6598969,1.4516068,1.3197937,3.0356064,1.8475952,4.4873047c0.3960114,1.0559006,0.9241028,2.2438965,1.4519043,3.5636978
	c0.5278015,1.1876984,1.0558929,2.3754044,1.4519043,3.5634003c0.3956909,1.0559006,0.7917023,2.1115036,1.1876984,2.9035034
	c0.3956909,0.7919998,0.5278015,1.3199005,0.6598969,1.5837936l2.2436066-0.5278931l4.6194-11.0865021
	c0.5280914-1.1876984,1.0558929-2.2436981,1.5839996-3.1677017c0.5277863-0.9238968,1.1876984-1.5838013,1.9796906-2.2436981
	l-0.1320953-1.5837021C216.0583954,61.2411003,215.6623993,61.2411003,215.0027924,61.3728981L215.0027924,61.3728981
	L215.0027924,61.3728981L215.0027924,61.3728981z M248.922699,60.7130013c-0.6599121,0-1.1876984,0.1320992-1.7158051,0.2638969
	c-0.5278015,0.132103-1.0558929,0.3959999-1.5836945,0.7920036c-0.5278015,0.2638969-0.9241028,0.6598969-1.4519043,0.9237976
	c-0.3957062,0.3959999-0.7917023,0.6599007-1.1876984,1.0559006h-0.1324005l-0.6598969-2.5074997l-0.2639008-0.1320992
	l-5.2793121,0.7919998v1.5836983l2.5076141,0.6599007v12.6706009l-2.7714996,1.0559006l0.1320953,1.5839996l9.2384033-0.0002975
	v-1.5837021l-2.7714081-0.7919998l0.0003052-11.7468033l5.8072968,0.3960037
	c0.3957062-0.5278015,0.6598969-1.0559006,0.9237976-1.7158051c0.2642059-0.6598969,0.2642059-1.1876984,0.2642059-1.8478966
	c0-0.5278015-0.1321106-0.7917023-0.2642059-1.0559006C249.4505005,60.8451004,249.1865997,60.7130013,248.922699,60.7130013
	L248.922699,60.7130013L248.922699,60.7130013L248.922699,60.7130013z M263.7048035,70.7436981
	c-0.5278015-0.5278015-1.0559082-0.7919998-1.7158203-1.1876984c-0.7919922-0.3959961-1.4519043-0.7919998-2.2435913-1.0559006
	c-0.6599121-0.2641983-1.3197937-0.5279007-1.8479004-0.7919998c-0.3956909-0.131897-0.9237976-0.3957977-1.3197937-0.659996
	c-0.3956909-0.2639008-0.5278015-0.3957062-0.7917023-0.6599045c-0.1320953-0.2639008-0.2642059-0.5278015-0.2642059-0.9237976
	c0-0.6599045,0.2642059-1.1876984,0.6599121-1.5837021c0.5278015-0.3959999,1.0558777-0.5280991,1.8479004-0.5280991
	c0.3956909,0,0.9237976,0.1320992,1.3197937,0.1320992c0.5278015,0.1320992,1.0559082,0.3959999,1.7157898,0.6599007
	l1.3197937,2.9035034l1.3198242-0.1318054c0-0.7919998,0-1.5839996,0-2.3756943c0-0.7920036,0-1.5840034,0-2.3757019
	c-0.9241028-0.5281029-1.8479004-0.7920036-2.9038086-1.0559006c-0.9237976-0.132103-1.8475952-0.2642021-2.7713928-0.2642021
	c-1.1877136,0-2.2436066,0.1320992-3.035614,0.3959999c-0.7919922,0.2639008-1.4519958,0.6599007-1.9797974,1.0559006
	c-0.5278015,0.5278015-0.9237976,1.0559006-1.1876984,1.5837021c-0.2642059,0.6598969-0.3959961,1.1876984-0.3959961,1.8479004
	c0,0.7919998,0.1320953,1.4516983,0.5278015,1.9797974c0.2641907,0.5278015,0.7919922,1.0559006,1.3197937,1.4515991
	c0.5281067,0.3960037,1.1880035,0.7919998,1.8479004,1.0559006l1.9798126,0.9241028
	c0.5278015,0.2639008,1.0558777,0.5278015,1.4518738,0.6598969c0.3957214,0.2639008,0.7917175,0.3956985,1.1877136,0.6599045
	c0.3956909,0.2638931,0.6599121,0.5277939,0.791687,0.7916946c0.1321106,0.2642059,0.2642212,0.6599045,0.2642212,1.1880035
	c0,0.7917023-0.3959961,1.4515991-1.0559082,1.8475952c-0.6599121,0.3960037-1.5839844,0.5278015-2.6398926,0.5278015
	c-0.5278015,0-1.0559082-0.1317978-1.7158051-0.2639008c-0.6596985-0.1320953-1.1876984-0.3956985-1.7156067-0.7919998
	l-1.5839996-3.2994995c-0.2639008,0-0.3956909,0.132103-0.6598969,0.132103c-0.2639008,0-0.3956909,0.1320953-0.6598969,0.1320953
	l0.2642059,5.1471024c0.6598969,0.3960037,1.5836945,0.7919998,2.6395874,0.9237976
	c1.0559082,0.2642059,2.2437134,0.3960037,3.2996063,0.3960037c1.3197937,0,2.5078125-0.1320038,3.4316101-0.3960037
	c0.9241028-0.2638931,1.7157898-0.6598969,2.3757019-1.1876984c0.6598816-0.5278015,1.0558777-1.0559006,1.3197937-1.7157974
	c0.2638855-0.6598969,0.3959961-1.4515991,0.3959961-2.1115036c0-0.7919998-0.1321106-1.4518967-0.3959961-1.9796982
	C264.4971008,71.6675034,264.232605,71.2717972,263.7048035,70.7436981L263.7048035,70.7436981L263.7048035,70.7436981
	L263.7048035,70.7436981z M272.283905,58.4693985c0.7919922,0,1.3197937-0.2641983,1.8479004-0.7919998
	c0.5278015-0.5277977,0.7919922-1.1876984,0.6598816-1.8479004c0-0.6596985-0.2638855-1.3195992-0.6598816-1.8476982
	c-0.5278015-0.5278015-1.0559082-0.7919998-1.8479004-0.7919998c-0.6596069,0-1.3196106,0.2641983-1.7158203,0.7919998
	c-0.5278015,0.5279007-0.7917786,1.0559998-0.7917786,1.8476982c0,0.6599007,0.2639771,1.3198013,0.6599731,1.8479004
	C270.9642944,58.2055016,271.6242981,58.4693985,272.283905,58.4693985L272.283905,58.4693985L272.283905,58.4693985
	L272.283905,58.4693985z M274.3956909,69.0280991c0-2.6399002,0-5.2794991,0-7.9190979l-0.2638855-0.132103l-5.939209,0.9241028
	v1.5836983c0.3956909,0.1320992,0.791687,0.2639008,1.1876831,0.3959999
	c0.395813,0.1317978,0.7918091,0.2639008,1.1878052,0.3956985v12.6709061l-2.7717896,1.0558929c0,0.2639008,0,0.5278015,0,0.7917023
	c0,0.2641983,0,0.5280991,0,0.7919998l9.2389832-0.0002975c0-0.2639008,0-0.5278015,0-0.7919998
	c0-0.2639008,0-0.5278015,0-0.7917023l-2.7713928-0.9241028C274.3956909,74.3074036,274.3956909,71.6675034,274.3956909,69.0280991
	L274.3956909,69.0280991L274.3956909,69.0280991L274.3956909,69.0280991z M290.8935852,76.4188995
	c-0.7919922,0.132103-1.4519043,0.2641983-1.8479004,0.3960037c-0.5278015,0.1320953-1.0558777,0.1320953-1.4515991,0.1320953
	c-0.9241028,0-1.5839844-0.2641983-1.9797058-0.6598969c-0.3959961-0.5280991-0.5278015-1.1880035-0.5278015-1.9796982V63.4844017
	l5.2792053,0.0002975v-1.9796982h-5.2792053v-4.6193008l-0.1320801-0.1320992l-0.1321106-0.132103l-1.9797974,0.6599007
	l-1.3197937,3.8276024c-0.5278015,0.1317978-0.9237976,0.3956985-1.4515991,0.5277977
	c-0.3959961,0.132103-0.9241028,0.3959999-1.3197937,0.5278015v1.3198013l2.5074768,0.0002975v10.8230019
	c0,0.9237976,0.1321106,1.7157974,0.263916,2.3757019c0.1321106,0.6598969,0.3959961,1.1876984,0.7919922,1.7157974
	c0.3959961,0.3956985,0.7919922,0.7917023,1.4519043,0.9237976c0.6599121,0.2639008,1.4516907,0.2639008,2.3757935,0.2639008
	c1.8475952,0,3.6952209-0.3956985,5.6752014-1.3198013c-0.1321106-0.3956985-0.1321106-0.6598969-0.2641907-1.0559006
	C291.026001,77.0787964,290.8935852,76.6830978,290.8935852,76.4188995L290.8935852,76.4188995L290.8935852,76.4188995
	L290.8935852,76.4188995z M311.2190857,62.1649017c0-0.2642021-0.1318054-0.5281029-0.1318054-0.7920036l-6.5995789,0.2639008
	c0,0.2642021,0,0.5281029,0,0.7919998c0,0.2639008,0,0.5278015,0,0.7919998l2.2435913,0.7916985
	c-0.6596069,1.9797058-1.3194885,3.9597015-2.1115112,5.9392014l-2.1117859,5.9393997h-0.1315002
	c-0.5281067-1.7157974-1.1879883-3.4315948-1.7157898-5.1470947c-0.6599121-1.7159042-1.1880188-3.4317017-1.7158203-5.1478043
	c-0.2641907-0.7919998-0.5281067-1.5837021-0.6600037-2.2435989c-0.1319885-0.7919998-0.2640991-1.3198013-0.2640991-1.979702
	l-6.0709839,0.2639008v1.5839996l1.8475952,0.6599007l3.0355835,7.7868042
	c0.9239197,2.6399002,1.9798279,5.1473999,3.0357056,7.7869949l1.3198242,0.132103l-0.9238281,2.3757019
	c-0.1320801,0.2639999-0.2641907,0.5278931-0.3959961,0.9238968c-0.1320801,0.2639008-0.3959961,0.6598969-0.5278015,0.9237976
	c-0.2641907,0.2642059-0.5280762,0.5280991-0.7919922,0.7919998c-0.2640076,0.2639008-0.6600037,0.3960037-1.0559998,0.3960037
	l-3.1676941-1.8479004c-0.5278015,0.2639008-0.7917175,0.5278015-1.1877136,0.9237976
	c-0.2638855,0.3960037-0.3956909,0.9241028-0.3956909,1.3198013c0,0.6598969,0.263916,1.3198013,0.9237976,1.7157974
	c0.6599121,0.3960037,1.4519043,0.6599045,2.3757019,0.6599045c1.4519043,0,2.6395874-0.5278015,3.5635071-1.4515991
	c0.9237976-0.9241028,1.7157898-2.2439041,2.3757019-3.8276062l2.9035034-6.9950943
	c0.9241028-2.3757019,1.9796753-4.6193008,2.9035034-6.9950027c0.5280762-1.1877975,0.9240723-2.2436981,1.4518738-3.1678009
	c0.5278015-0.9237976,1.1877136-1.7157974,1.8479004-2.2435989
	C311.3511963,62.6926994,311.2190857,62.4287987,311.2190857,62.1649017L311.2190857,62.1649017L311.2190857,62.1649017
	L311.2190857,62.1649017z M189.1334991,38.4076996l0.1320953-13.0662994l3.2994995-0.7919998l-0.1318054-2.2436008
	c0,0-1.451889,0.1321011-3.2997894,0.1321011c-1.8476105,0-6.3350983-0.1321011-6.3350983-0.1321011l-0.1321106,1.9797001
	l3.0355988,0.9237995v11.4829006c0,0.9238014-0.1317902,1.847599-0.2639008,2.6395988
	c-0.1320953,0.7919998-0.3959961,1.5837021-0.7919922,2.1118011c-0.3957062,0.6599007-0.9237976,1.0559006-1.7158051,1.4517021
	c-0.6598969,0.3959999-1.5836945,0.5277977-2.6396027,0.5277977c-1.1877899,0-2.1115875-0.1317978-2.7714996-0.5277977
	c-0.6598969-0.2639008-1.3197937-0.7918015-1.5839996-1.3198013c-0.3956909-0.5279007-0.6598969-1.1878014-0.791687-1.9798012
	c-0.1321106-0.7916985-0.1321106-1.5836983-0.1321106-2.3756981V25.2091007l3.1677094-0.7919998L178.0468903,22.3055
	c0,0-0.7919922,0.1320992-3.6954956,0.1320992S166.8284912,22.3055,166.8284912,22.3055l-0.1320953,1.9797001l3.0357056,0.9239006
	v13.4624996c0,1.7159004,0.2639008,3.0356979,0.9237976,4.0915985s1.451889,1.8479004,2.3757019,2.5078011
	c0.9237976,0.6599007,1.9796906,1.0559006,3.0355988,1.3198013c1.0558929,0.2638969,2.1118011,0.3956985,3.1676941,0.3956985
	c1.1876984,0,2.2436981-0.1320992,3.4313965-0.3956985c1.1880035-0.2642021,2.2439117-0.6599007,3.2998047-1.3198013
	c0.9237976-0.6599007,1.7158051-1.5839996,2.3757019-2.6399002
	C188.8695984,41.7072983,189.1334991,40.2554016,189.1334991,38.4076996L189.1334991,38.4076996L189.1334991,38.4076996
	L189.1334991,38.4076996z M182.5345001,65.9925003c0-1.7157974-0.3960114-3.0355988-1.1878052-3.8275986
	c-0.7919922-0.7920036-2.1118011-1.1877022-3.6954956-1.1877022c-0.5281067,0-1.1880035,0-1.8479004,0.1320992
	c-0.6598969,0.1318016-1.319809,0.1318016-1.8479004,0.2639008l-2.6396027,2.5078011l0,0l0,0l-0.7920074-2.6399002
	l-0.2638855-0.1318016c-0.7920074,0.1318016-1.7158051,0.2639008-2.5078125,0.3957024
	c-0.7917938,0.1320992-1.716095,0.2641983-2.5075989,0.3959999v1.5836983l2.5075989,0.6599007v12.6706009l-2.7714996,0.9241028
	l0.1321106,1.5836945l8.9747925-0.0002975v-1.5839996l-2.5077972-0.7917023c0-2.2438965,0-4.3554001,0-6.0711975v-5.0154037
	c0.7919922-0.5280991,1.5843048-0.7919998,2.3757019-1.0559006c0.7919922-0.2641983,1.4519043-0.3959961,2.1118011-0.3959961
	c1.0558929,0,1.8479004,0.2639008,2.2435913,0.7919998c0.3960114,0.5278015,0.6598969,1.4515991,0.6598969,2.5075989v9.1071014
	l-2.5074921,0.9237976v1.5839996l8.8430023-0.0002975l0.1317902-1.5839996l-2.5074921-0.7917023L182.5345001,65.9925003
	L182.5345001,65.9925003L182.5345001,65.9925003L182.5345001,65.9925003z M72.0634995,20.4575996L72.0634995,20.4575996
	c-0.5278015-0.3957005-0.2639008-1.3197994,0.3960037-1.3197994c4.0914993,0.3959999,8.0509949,1.0559006,12.0106964,1.9797001
	v-4.7514c0-3.0356007-2.3757019-5.4113007-5.2792969-5.4113007h-4.0918045h-0.1317978h-0.132103
	c-0.7919998,0-1.4518967-0.6598997-1.4518967-1.4516993V1.4522001C73.3833008,0.6599,74.0431976,0,74.8351974,0h28.376503
	c0.7919998,0,1.4518967,0.6599,1.4518967,1.4519v8.1828003c0,0.7919998-0.6598969,1.4519005-1.4518967,1.4519005l0,0l0,0
	l-4.0914993,0.0002995c-2.9035034,0-5.2793045,2.5075006-5.2793045,5.4110012v2.2439003c0,0.1317997,0,0.1317997,0,0.1317997
	v5.1474991c3.6956024,1.3198013,7.2590027,2.9035015,10.5587997,4.7514
	c2.1118011,1.1877003,4.2236023,2.6396008,6.2033997,4.0914974c0,0,0.1320038,0,0.1320038,0.1318016
	c0.131897,0.3959999,0,0.7919998-0.2640991,0.924099c-6.3348999,3.5634995-14.5179977,6.3352013-23.7572021,8.0510025
	c-0.3959961,0-0.6598969-0.2639008-0.7917023-0.5278015C83.5460968,31.9405003,78.5307007,24.4171009,72.0634995,20.4575996
	L72.0634995,20.4575996L72.0634995,20.4575996z M62.9562988,43.4230995
	c7.3914032-0.1320992,14.6506042-0.6599007,21.2497025-1.8479004C81.0385971,28.5088997,72.459198,19.1378002,62.2963982,18.6096992
	v24.2853012C62.4285011,43.1591988,62.6924019,43.4230995,62.9562988,43.4230995L62.9562988,43.4230995L62.9562988,43.4230995z
	 M110.3388977,72.5915985c0.132103,0,0.132103,0,0.2641983,0c0.1320038,0.132103,0.1320038,0.5280991-0.1320953,0.6599045
	c-1.847702,1.3197937-3.8277054,2.639595-5.8074036,3.6954956c-3.827301,2.1118011-8.0508957,3.8275986-12.5382004,5.2793045
	c0,0.1319962,0,0.1319962,0,0.1319962c-4.4874954,12.4064026-16.366394,20.7216034-29.6965981,20.7216034l-0.7922974,0.0002975
	c-14.6503029,0-27.0567017-8.9750977-32.2041016-21.5136032c-0.1317997,0-0.3957005,0-0.5277996,0
	c-3.8276005-1.3197937-7.3910999-2.9034958-10.5587997-4.6192932C16.4979,75.8914032,14.6503,74.7033997,12.9344997,73.5157013
	c-0.1321001,0-0.2642002-0.132103-0.2642002-0.2639008c-0.1317997-0.3960037,0-0.9241028,0.3960009-1.0559006
	c3.9593992-2.1118011,8.7109003-3.8276978,13.8585997-5.2792969V65.200798
	c-6.0713005,1.5837021-11.4828997,3.6953049-15.9703999,6.2031021c-0.2638998,0.132103-0.6599007,0.132103-0.9238005-0.132103
	C3.4316001,65.728302,0,59.2611008,0,52.5297012C0,45.7985001,3.4316001,39.331501,9.7667999,33.919899l0,0
	c4.6192999,2.7714996,10.4263992,5.0153999,17.026001,6.8630028v-1.7158012
	c-5.4114017-1.5837021-10.427-3.4315987-14.5182009-5.6753006c-0.5277996-0.2639008-0.6598997-0.9238014-0.1317997-1.3198013
	c1.8476-1.3197994,3.9593992-2.6395988,6.2030001-3.8272991c2.7716999-1.4518986,5.6752987-2.7716999,8.5793991-3.8275986
	v-5.9392014l0,0v-2.1117992c0-2.9035006-2.5077991-5.2792006-5.4113998-5.2792006h-4.2236004l0,0l0,0
	c-0.7919998,0-1.4518995-0.6599998-1.4518995-1.4519997V1.7161c0-0.792,0.6598997-1.4519,1.4518995-1.4519l43.1585999-0.0003
	c0.7917023,0,1.4515991,0.6599,1.4515991,1.4519v7.9188995c0,0.7919998-0.6598969,1.4519005-1.4515991,1.4519005l0,0l0,0
	l-4.2233009,0.0002995c-3.0355988,0-5.4113998,2.3757-5.4113998,5.2792006v2.7716999l0,0
	c0.3958015,0,0.7918015-0.1321011,1.1878014-0.1321011c0.3959999-0.1320992,0.6599007,0.5278015,0.2639008,0.6599007
	c-0.5278015,0.2639008-0.9238014,0.5277996-1.4517021,0.7919998v2.1116009
	c2.9036026-1.9798012,6.3348999-3.2996006,9.7665024-3.4316998v23.7571983l0,0c0,0.3959999-0.2639008,0.6599007-0.6599007,0.6599007
	c-3.0353012,0-6.0709-0.1318016-9.1066017-0.3956985v1.7157974c2.9036026,0.2636032,5.9392014,0.3957024,8.9751015,0.3957024
	c0.3959999,0,0.7919998,0.3959999,0.7919998,0.7919998v14.1224976c0,0.3959999-0.3959999,0.7917023-0.7919998,0.7917023
	c-3.0355988,0-6.0712013,0.1320992-8.9751015,0.3959999v1.7158012c2.9036026-0.2639008,5.9392014-0.3959999,8.9751015-0.3959999
	c0.3959999,0,0.7919998,0.3959999,0.7919998,0.7919998v21.9095955c0,0.132103,0,0.132103,0,0.132103
	c0,0.3956985-0.3959999,0.6595993-0.7919998,0.6595993c-2.2435989-0.1317978-4.4874992-0.7917023-6.4672012-1.8476028
	c2.903801,4.6193008,8.1833,7.5228043,13.7264023,7.5228043l1.055397,0.0002975
	c5.4113007,0,10.295105-2.639595,13.3308029-6.8628998c-3.2995987,0.5278015-6.5990982,1.055603-9.8989029,1.3198013
	c-0.5280991,0-0.7916946-0.6598969-0.2639008-0.9241028C77.8707962,81.6987,83.2822037,74.4394989,85.7897034,65.200798
	c0-0.2639008,0.2638931-0.3959961,0.5280991-0.3959961C95.6889038,66.5203018,103.8715973,69.1600037,110.3388977,72.5915985
	L110.3388977,72.5915985L110.3388977,72.5915985z M63.2207985,60.7130013
	c7.1272011,0.1320992,14.2540016,0.6598969,20.7215996,1.5836983c0.3956985,0.1320992,0.7917023-0.1317978,0.9238052-0.5277977
	c0.6598969-2.9035034,0.9237976-5.9391022,0.9237976-9.1069031c0-2.9034996-0.2639008-5.6751976-0.7917023-8.3148003
	c-0.1320953-0.3956985-0.5278015-0.6598969-0.9240952-0.6598969c-6.5991058,1.0558968-13.7259064,1.5839996-20.9855042,1.7157974
	c-0.3959999,0-0.7919998,0.3959999-0.7919998,0.7919998v13.7265015
	C62.4285011,60.3170013,62.824501,60.7130013,63.2207985,60.7130013L63.2207985,60.7130013L63.2207985,60.7130013z
	 M47.9103012,16.3661003v59.3929024c0,10.4269943,8.5788002,19.0059967,19.2696991,19.0059967h1.055603
	c7.2591934,0,13.8585968-3.9593964,17.1580963-10.4266968c0-0.1320038,0-0.1320038,0.132103-0.2640991
	c0.2639008,0,0.5277939-0.1319046,0.7919998-0.1319046C82.2263031,92.2572021,73.9111023,97.536499,64.4083023,97.536499h-0.5279007
	c-13.4623032,0-24.285202-10.8227005-24.285202-24.0210953V18.4778996c0-0.1317997,0-0.1317997,0-0.2638988
	c0.1320992-5.0153008,4.3554001-9.1069012,9.5028-9.1069012h3.4317017
	C49.6260986,10.4268999,47.9103012,13.1987,47.9103012,16.3661003L47.9103012,16.3661003L47.9103012,16.3661003
	L47.9103012,16.3661003z M58.9968987,3.168c0,0-40.2553978,0-40.1230011,0v4.7510996L28.7724991,7.9189
	c4.4874992,0,8.4470024,2.9037995,10.0307007,7.1273999C40.2551003,10.6908998,44.3465996,7.9189,48.8339005,7.9189h10.1629982
	V3.168L58.9968987,3.168L58.9968987,3.168z M62.2963982,100.1763992h-0.7913971
	c-17.4223022,0-31.6766014-13.9904022-31.6766014-31.2802963V19.1378002l0,0v-2.7714005
	c0-3.1676998-1.847599-5.9391994-4.4871998-7.2593002h3.2994995c5.1471004,0,9.3708019,4.0916004,9.5025997,9.1069012
	c0,0.1320992,0,0.1320992,0,0.2638988v4.2236004v0.1320992v50.6818047c0,13.8585968,11.4826012,25.2090988,25.4729996,25.2090988
	h0.5280037c10.2946014,0,19.4017944-5.9392014,23.3611984-15.1784058c0.2639008-0.1320953,0.5278015-0.1320953,0.9237976-0.2641983
	C83.9421005,93.4451981,73.6472015,100.1763992,62.2963982,100.1763992L62.2963982,100.1763992L62.2963982,100.1763992z
	 M90.8052979,16.4981995c0-2.9034996,1.4519043-5.5433998,3.6956024-6.9952993
	c-2.5079041,0.9239998-4.3554993,3.2997999-4.6194,6.0711994v7.1271009c0.2639008,0,0.6598969,0.1320992,0.9237976,0.2639999
	v-3.5635014c0-0.1320992,0-0.1320992,0-0.1320992V16.4981995L90.8052979,16.4981995L90.8052979,16.4981995z M101.7600937,2.9040999
	L76.2871017,2.9035001v4.8835001h5.4113998c3.4312973,0,6.3350983,2.2436996,7.5227966,5.2793002
	c1.1880035-3.1677008,4.0915985-5.2793002,7.523201-5.2793002h5.0155945V2.9040999L101.7600937,2.9040999L101.7600937,2.9040999z
	 M87.373703,19.2698994L87.373703,19.2698994v2.7716999c0.5277939,0.1318016,0.9237976,0.2639008,1.3197937,0.3959999v-6.0711994
	c0-0.1320992,0-0.1320992,0-0.2642002c-0.1320953-3.2992992-2.3756943-5.9391994-5.2798004-6.7308998
	c2.5078049,1.4516001,3.9597015,4.2234001,3.9597015,7.1268997L87.373703,19.2698994L87.373703,19.2698994L87.373703,19.2698994z
	 M231.7645874,63.7486c-0.5277863-0.7919998-1.3197937-1.4519005-2.2435913-1.9796982
	c-0.9237976-0.5278015-2.2436066-0.7920036-3.8276062-0.7920036c-1.7158966,0-3.0356903,0.2642021-4.2233887,0.7920036
	c-1.0559082,0.5277977-1.9797058,1.3197975-2.6399078,2.2435951c-0.6598969,0.9241028-1.0558929,1.9797058-1.3195038,3.0356064
	c-0.2641907,1.1877975-0.3959961,2.2439957-0.3959961,3.431694c0,1.4519043,0.1320953,2.7717056,0.5278015,3.8276062
	c0.2642059,1.1876984,0.7919922,2.111496,1.4519043,2.9034958c0.6598969,0.7919998,1.5836945,1.4519043,2.6396027,1.8479004
	c1.0558929,0.3956985,2.3756866,0.6598969,3.8275909,0.6598969c1.3199005,0,2.5075989-0.1320953,3.6956024-0.5280991
	c1.1876984-0.3956985,2.2435913-0.9237976,3.1674042-1.5836945l-0.6599121-1.9797058
	c-0.9237976,0.3960037-1.8475952,0.6599045-2.7713928,0.7919998c-0.9241028,0.1318054-1.5839996,0.2639008-2.1118011,0.2639008
	c-1.0559998,0-1.9797974-0.1320953-2.6396942-0.3956985c-0.6599121-0.2641983-1.319809-0.6598969-1.7158051-1.3198013
	c-0.3959961-0.5280991-0.7919922-1.1879959-0.9241028-2.1118011c-0.1317902-0.7919998-0.2639008-1.8479004-0.2639008-2.903595
	l11.6144104-0.6599045l0.2641907-0.3959961c0-0.9237976-0.1320953-1.8476028-0.2641907-2.7714005
	C232.6886902,65.4644012,232.2923889,64.5406036,231.7645874,63.7486L231.7645874,63.7486L231.7645874,63.7486z
	 M221.3381958,68.5000992c0-0.5279007,0-1.0559998,0.1318054-1.5838013
	c0.1320953-0.5280991,0.2641907-1.0559006,0.6598969-1.5839996c0.2641907-0.5278015,0.6598969-0.9237976,1.1876984-1.1876984
	c0.5280914-0.2639008,1.1880035-0.5278015,1.9797974-0.5278015c0.6598969,0,1.3197937,0.1318016,1.7158051,0.3956985
	c0.3959961,0.2642059,0.7919922,0.5281067,1.0558929,0.9241028c0.2642059,0.3956985,0.3959961,0.7917023,0.5281067,1.3198013
	c0.1317902,0.5278015,0.1317902,1.0559006,0.1317902,1.4516983L221.3381958,68.5000992L221.3381958,68.5000992
	L221.3381958,68.5000992z M200.2203979,46.4586983h1.5839996c0.2639008,0,0.5278015,0,1.0558929,0h1.7158051h1.7158051
	c0.5278015,0,0.791687,0,0.9237976,0c1.5836945,0,2.9035034-0.2641983,4.0914917-0.6598969
	c1.1878052-0.3959999,2.111908-0.9238014,3.0357056-1.5837021c0.7919922-0.6599007,1.4515991-1.4519005,1.9797058-2.2439003
	c0.5277863-0.9237976,0.9237976-1.7157974,1.1876984-2.639698c0.2639008-0.9238014,0.5278015-1.8479004,0.6598969-2.6396027
	c0.1320953-0.924099,0.1320953-1.7157974,0.1320953-2.3756981c0-1.4519005-0.1320953-2.9034996-0.5280914-4.3554001
	c-0.3957062-1.4519005-1.0559082-2.7716999-1.9797058-3.8276005c-0.9237976-1.1877995-2.111496-2.111599-3.6952972-2.7714996
	c-1.4519043-0.6599007-3.4316101-1.0559006-5.6755066-1.0559006c-0.3956909,0-0.7917023,0-1.1876984,0
	c-0.3956909,0-0.7919922,0-1.1876984,0c-0.3959961,0-0.9237976,0-1.4519043,0c-0.5278015,0-1.0558929,0-1.7157898,0
	L199.6925964,22.3055c-0.3959961,0-0.7920074,0-1.0559082,0c-0.3959961,0-0.7919922,0-1.1879883,0
	c-0.5278015,0-1.0559082,0-1.5838013,0l-0.2639008,2.1116009l2.7714996,0.7919998l0.0002899,18.4778996l-3.0356903,0.9238014
	l0.2639008,1.9796982c0.6598969,0,1.1877899,0,1.7158966,0h1.4519043
	C199.2966003,46.4586983,199.8244019,46.4586983,200.2203979,46.4586983L200.2203979,46.4586983L200.2203979,46.4586983
	L200.2203979,46.4586983z M203.6519928,25.7369003c0.2639008,0,0.5278015,0,0.7920074,0c0.2639008,0,0.6598969,0,0.9237976,0
	c0.9237976,0,1.9796906,0.1320992,2.9035034,0.3959999c0.9237976,0.2638988,1.7157898,0.6599007,2.3757935,1.3197994
	c0.6598969,0.6599007,1.1876984,1.451601,1.5836945,2.6396008c0.3960114,1.0558987,0.6599121,2.5078011,0.6599121,4.2235985
	c0,1.1877022-0.1318054,2.3757019-0.3957062,3.4316025c-0.2642059,1.0559998-0.6598969,2.111599-1.0558929,2.9035988
	c-0.5281067,0.7919998-1.1880035,1.5836983-2.111908,1.9796982c-0.7919922,0.5278015-1.8479004,0.7917023-3.1674042,0.7917023
	c-0.3959961,0-0.9241028,0-1.3197937,0c-0.3959961,0-0.9241028-0.1318016-1.319809-0.1318016L203.6519928,25.7369003
	L203.6519928,25.7369003L203.6519928,25.7369003L203.6519928,25.7369003z M220.1501923,44.6108017l0.1320953,2.1117973h10.0307007
	l0.1318054-2.2435989l-3.4315948-0.7919998l-0.2639008-15.0463009l0.1320953,0.0003014l5.0153046,6.7307987l8.9747925,11.8789024
	l2.6396027-0.5278015c0-0.3959999,0-1.1877022,0-2.2435989c0-1.0562019,0-2.3758011,0.1320953-3.8277016
	c0-1.4519005,0-2.9034996,0.1321106-4.6193008c0-1.5839996,0-3.1676979,0.1317902-4.6192989
	c0-1.4519005,0-2.6399002,0.1321106-3.8276997c0-1.0559006,0-1.8479004,0-2.2436008l3.5634003-0.7919998l-0.1321106-2.2435989
	L237.5718994,22.3055l-0.1321106,1.9797001l3.2999115,0.9239006l0.2639008,12.9344006h-0.1321106l-4.2234039-5.6752014
	l-5.9390869-7.9188995c-0.2642059-0.2642002-0.3960114-0.6599007-0.6599121-0.9241009
	c-0.2641907-0.3956985-0.5280914-0.7917004-0.6598969-1.3197994c-0.6598969,0-1.7157898,0-3.1678009,0.1320992
	c-1.7157898,0-3.4315948,0-5.2791901,0l-0.2639008,1.9797001l3.5634003,1.0559006l-0.3960114,18.0817013L220.1501923,44.6108017
	L220.1501923,44.6108017L220.1501923,44.6108017L220.1501923,44.6108017z M142.2794037,44.4790001l0.1320953,2.2435989
	c0,0,3.6951904-0.1320992,5.6752014-0.1320992c1.9796906,0,5.8072968,0.1320992,5.8072968,0.1320992l0.131897-2.2435989
	l-3.4319-0.7919998v-7.1272011c0.3959961,0.1320992,1.5839996,0.3959999,3.1677094,0.3959999l7.1270905,10.9547997
	l4.3554993-0.9237976l0.3957062-1.4519005l-7.3914032-9.3708c2.6396942-1.0559006,5.2792969-3.1677017,4.4875946-8.1828003
	c-0.9240875-6.0711994-7.3913879-5.5433998-9.1068878-5.5433998c-1.8479004,0-6.4673004,0.7919998-10.427002-0.1321011
	l-0.5281067,2.2439003c0,0,1.0561981,0.5277996,2.7718048,0.9237995V43.6875L142.2794037,44.4790001L142.2794037,44.4790001
	L142.2794037,44.4790001z M157.3253937,29.5645008c0,2.3757-1.3197937,4.7513981-6.7312012,3.8272991v-7.5228004
	c0.1321106,0,0.3959961,0,0.5281067,0C156.1376953,25.3411999,157.3253937,27.3209,157.3253937,29.5645008L157.3253937,29.5645008z"
	/>
</svg>
