<?xml version="1.0" encoding="utf-8"?>
<!-- Generator: Adobe Illustrator 19.1.1, SVG Export Plug-In . SVG Version: 6.00 Build 0)  -->
<svg version="1.1" id="_x31_" xmlns="http://www.w3.org/2000/svg" xmlns:xlink="http://www.w3.org/1999/xlink" x="0px" y="0px"
	 viewBox="0 0 595.2756348 197.1425934" style="enable-background:new 0 0 595.2756348 197.1425934;" xml:space="preserve">
<style type="text/css">
	.st0{fill-rule:evenodd;clip-rule:evenodd;fill:#417DB7;}
</style>
<path class="st0" d="M305.4313965,146.6575012v-29.5326996c-0.252594-0.2526016-0.5054016-0.2526016-0.5054016-0.2526016
	l-11.3587952,1.5150986v3.028801l4.7962952,1.262001l0.0001831,21.2032013
	c-1.5144958,1.0093994-3.0290833,1.514801-4.5432739,2.2713928c-1.5146179,0.5057068-3.0294189,0.7577057-4.0388184,0.7577057
	c-2.019104,0-3.2814026-0.5054016-4.2913818-1.5151062c-0.7566223-1.009201-1.2614136-2.7762909-1.2614136-5.0479889
	c0-3.7859039,0-7.5725098,0-11.3587036c0-3.7859039,0-7.5725021,0-11.3590012l-0.5050964-0.2525024l-11.3587952,1.514801
	l-0.0005188,3.0285034c0.7577209,0.252594,1.5151062,0.5046005,2.271698,0.7576981
	c0.7574158,0.2519989,1.5145264,0.5046005,2.2719116,0.7565994v20.4460068c0,3.5341949,0.7565918,6.0584869,2.5237122,7.3204956
	c1.7677002,1.5144958,4.0387878,2.0193939,7.0679016,2.0193939c1.0099792,0,2.019104,0,3.2810974-0.252594
	c1.2626038-0.2526093,2.524292-0.2526093,3.53479-0.5054016c1.7666016-1.5146027,3.2810974-3.0287933,5.0480042-4.7958984
	c0,0,0,0,0.2525024,0l1.5148926,5.0484924l0.5045166,0.2525024l10.3492737-1.5150909v-3.0288086
	c-1.0093994-0.252594-1.7677002-0.5045929-2.7767944-0.5045929
	C307.1979065,147.1627045,306.1887817,146.9107056,305.4313965,146.6575012L305.4313965,146.6575012L305.4313965,146.6575012
	L305.4313965,146.6575012L305.4313965,146.6575012L305.4313965,146.6575012z M121.1623993,164.3276062
	c18.1745911-1.7671051,33.5720978-17.670105,40.1351929-39.6306076c0.2525024-0.7572021-0.2519989-1.514595-1.0093994-1.7666016
	h-0.252594c-12.3684082-1.767395-25.4945068-3.0293961-38.8731995-3.0293961c-0.757103,0-1.5150986,0.7572021-1.5150986,1.5150986
	l0,0v41.6498032C119.3952942,163.5704041,120.1532974,164.3276062,121.1623993,164.3276062L121.1623993,164.3276062
	L121.1623993,164.3276062L121.1623993,164.3276062L121.1623993,164.3276062L121.1623993,164.3276062z M216.3265991,65.8823013
	c-0.7572021-0.5046005-1.7666016-0.7565994-2.5243073-0.2519989c-12.3683929,7.067894-28.5233002,12.6212997-46.9496918,16.1551971
	c-1.2620087,0.2519989-1.7677002,1.2613983-1.7677002,2.5240021c1.009491,5.3011017,1.5151978,10.6018982,1.5151978,16.1546021
	c0,6.0584946-0.5057068,12.116394-1.767395,17.6694946c-0.2520142,1.262001,0.5056915,2.271698,1.767395,2.5242996
	c17.9216919,3.5335999,33.8246918,8.8347015,45.9404907,15.6500092c0.7571106,0.5048981,1.7671051,0.252594,2.2717133-0.2525024
	c12.1169891-10.3496017,18.4273987-22.7177048,18.4273987-35.5918045
	C233.7436981,87.8429031,227.6852875,75.979599,216.3265991,65.8823013L216.3265991,65.8823013L216.3265991,65.8823013
	L216.3265991,65.8823013L216.3265991,65.8823013L216.3265991,65.8823013z M363.993988,103.4932022
	c-1.0100098,1.0094986-1.5151062,2.0196991-1.5151062,3.5342941c0,1.262207,0.5050964,2.5242004,1.2620239,3.5342026
	c0.7576904,1.0100021,2.0193787,1.5146027,3.5344849,1.5146027c1.5140076,0,2.523407-0.5046005,3.5336914-1.5146027
	c1.0097046-1.0100021,1.5144958-2.2719955,1.2619934-3.5342026c0-1.2619934-0.505188-2.5236969-1.2619934-3.5342941
	c-1.0097046-1.009903-2.0196838-1.5145035-3.5336914-1.5145035
	C366.2650757,101.9794998,365.002594,102.4834976,363.993988,103.4932022L363.993988,103.4932022L363.993988,103.4932022
	L363.993988,103.4932022L363.993988,103.4932022L363.993988,103.4932022z M371.3139038,132.017395
	c0-5.0484924,0-10.0972977,0-15.145195l-0.5054016-0.2526016l-11.3583984,1.7672043v3.028801
	c0.7565002,0.2524948,1.5139771,0.5047989,2.2710876,0.7570953c0.7571106,0.2519989,1.5151062,0.5054016,2.271698,0.7574005
	v24.2330933l-5.3008118,2.019104c0,1.0100098,0,2.0194092,0.2520142,2.7765961l17.6697998-0.0005951
	c0-0.5047913,0-1.0093994,0-1.5144958c0-0.5055084,0-1.0099945,0-1.5146027l-5.300293-1.7671051
	C371.3139038,142.1147003,371.3139038,137.0657043,371.3139038,132.017395L371.3139038,132.017395L371.3139038,132.017395
	L371.3139038,132.017395L371.3139038,132.017395L371.3139038,132.017395z M411.1967773,117.3768005l-3.786499,0.2525024
	c-1.2613831,0-2.7764893,0-3.785675,0.2519989c-1.2620239,0-2.0197144,0-2.5242004,0v3.0302963l4.290802,1.5139999
	c-0.2526245,0.2525024-0.5049133,1.0102005-0.7572021,2.0195999c-0.2520142,1.0097046-0.7565002,2.2717056-1.2625122,3.7860031
	c-0.5046082,1.514801-1.0093994,3.0296936-1.5140076,4.543396l-1.5151062,4.5438995
	c-0.5048828,1.5146027-1.0093994,2.7768097-1.2619934,3.7860107c-0.252594,0.7570953-0.5046082,1.2618866-0.7570801,2.0190887
	l-0.2540283-0.0005951l-6.5630798-17.6695023c-0.5047913-1.262001-1.0093994-2.7768021-1.2614136-4.0387955
	c-0.2525024-1.2617035-0.5050964-2.5242004-0.7570801-3.7859039l-11.6112976,0.5051041v3.0290985l3.5341797,1.2616959
	c1.2619934,2.7765045,2.524292,5.8059082,3.5337219,8.5821991c0.7576904,2.0196991,1.7676697,4.2913055,2.7767944,6.8155975
	c1.009491,2.2714081,2.0196838,4.5428009,2.776886,6.8151093c0.7568054,2.0190887,1.5144958,4.0381927,2.2713928,5.5527039
	c0.7571106,1.5148926,1.0097046,2.524292,1.2619019,3.0293884l4.290802-1.0096893l8.8348083-21.2033997
	c1.010498-2.2711029,2.0196838-4.2908096,3.0296936-6.0585098c1.0093994-1.7664948,2.2711182-3.028801,3.7859192-4.2907944
	l-0.2526245-3.028801C413.2156982,117.1248016,412.4581909,117.1248016,411.1967773,117.3768005L411.1967773,117.3768005
	L411.1967773,117.3768005L411.1967773,117.3768005L411.1967773,117.3768005L411.1967773,117.3768005z M476.0690918,116.1147995
	c-1.2619934,0-2.2713928,0.2526016-3.2810974,0.5047989c-1.0093994,0.2526016-2.0197144,0.7572021-3.0288086,1.5146027
	c-1.0093994,0.5047989-1.7677002,1.262001-2.7767944,1.7670975c-0.7565918,0.757103-1.5140076,1.262001-2.2712097,2.019104
	l-0.2539063-0.0003052l-1.2616882-4.7956009l-0.5049133-0.252594l-10.0966797,1.5150986v3.0289001l4.7955933,1.2619019v24.2325974
	l-5.3005066,2.019104l0.252594,3.0293884l17.6686096-0.0002899v-3.0290985l-5.3007813-1.5146027L464.710083,124.9487
	l11.1064148,0.757103c0.7565918-1.0093994,1.2616882-2.019104,1.7671814-3.281105
	c0.5050964-1.262001,0.5050964-2.271698,0.5050964-3.5347977c0-1.0093994-0.252594-1.5139999-0.5050964-2.019104
	C477.0787964,116.3674011,476.5737,116.1147995,476.0690918,116.1147995L476.0690918,116.1147995L476.0690918,116.1147995
	L476.0690918,116.1147995L476.0690918,116.1147995L476.0690918,116.1147995z M504.3403931,135.2991028
	c-1.0099182-1.0100098-2.0195923-1.514801-3.2818909-2.271698c-1.5146179-0.7571106-2.7765198-1.5145111-4.2905273-2.019104
	c-1.2622986-0.5057068-2.524292-1.0099945-3.5345764-1.5151062c-0.7568054-0.2519989-1.76651-0.7565918-2.5242004-1.2625885
	c-0.756897-0.504509-1.0093994-0.7565079-1.5140076-1.2617035c-0.252594-0.5047989-0.5057068-1.0093994-0.5057068-1.7665024
	c0-1.2626038,0.5057068-2.2720032,1.2619934-3.0290985c1.0100098-0.7572021,2.0197144-1.0100021,3.5345154-1.0100021
	c0.756897,0,1.7666016,0.2526016,2.524292,0.2526016c1.0093994,0.2519989,2.019104,0.7570953,3.2810974,1.2619019
	l2.5242004,5.5524979l2.524292-0.2519989c0-1.5145035,0-3.0290985,0-4.5433044c0-1.5149002,0-3.0297012,0-4.543396
	c-1.7677002-1.0102997-3.5343018-1.514801-5.553894-2.0196991c-1.7666016-0.2525024-3.5336914-0.5054016-5.300293-0.5054016
	c-2.2710876,0-4.290802,0.2526016-5.8052979,0.7570953c-1.5148926,0.5049057-2.7774048,1.262001-3.786499,2.0192032
	c-1.009491,1.009903-1.7672119,2.0195999-2.2713928,3.0290985c-0.5057068,1.2617035-0.7577209,2.2715988-0.7577209,3.533905
	c0,1.5147934,0.2525024,2.7768021,1.0099182,3.7867966c0.5046082,1.0093994,1.5142822,2.0196991,2.5236816,2.7765045
	c1.0106201,0.7572021,2.2723083,1.5146027,3.5348206,2.0191956l3.7859802,1.7675934
	c1.0093994,0.5049133,2.0197144,1.0095062,2.776825,1.2620087c0.7565918,0.5052032,1.5142822,0.7565918,2.271698,1.2617035
	c0.7567749,0.5048981,1.2619934,1.0099945,1.5139771,1.5145874c0.2525024,0.5051117,0.5050964,1.2617035,0.5050964,2.2717133
	c0,1.5144958-0.7570801,2.7764893-2.0190735,3.5335999c-1.2622986,0.7576904-3.0294189,1.0099945-5.0491028,1.0099945
	c-1.0091248,0-2.019104-0.2519989-3.2814026-0.5054016c-1.2611084-0.252594-2.2711182-0.7565918-3.2810974-1.5144958
	l-3.0294189-6.3105011c-0.5047913,0-0.7568054,0.2525024-1.2619019,0.2525024c-0.5045776,0-0.7565918,0.252594-1.2619934,0.252594
	l0.506012,9.8435974c1.2616882,0.7571106,3.0281982,1.514801,5.0478821,1.7671051
	c2.019104,0.5050964,4.290802,0.7570953,6.3105164,0.7570953c2.5242004,0,4.7958984-0.2525024,6.5629883-0.7570953
	c1.7672119-0.5048065,3.2810974-1.2624969,4.543396-2.271698c1.2617188-1.0093994,2.0197144-2.019104,2.5243225-3.2810974
	c0.5044861-1.2625122,0.7570801-2.7765045,0.7570801-4.038208c0-1.514801-0.252594-2.7767944-0.7570801-3.7861938
	C505.8555908,137.0657043,505.349884,136.3088074,504.3403931,135.2991028L504.3403931,135.2991028L504.3403931,135.2991028
	L504.3403931,135.2991028L504.3403931,135.2991028L504.3403931,135.2991028z M520.7476807,111.8239975
	c1.5148315,0,2.524231-0.5056992,3.5339355-1.5150986c1.0099487-1.0094986,1.5150757-2.2712021,1.2625732-3.5343018
	c0-1.2616959-0.5048828-2.5236969-1.2625732-3.5335999c-1.0093994-1.0094986-2.019104-1.5149002-3.5339355-1.5149002
	c-1.2614746,0-2.5239868,0.5056992-3.2816772,1.5149002c-1.0090942,1.009903-1.5143433,2.0195999-1.5143433,3.5335999
	c0,1.262001,0.505249,2.5242996,1.2626343,3.5343018C518.223999,111.3188019,519.4862061,111.8239975,520.7476807,111.8239975
	L520.7476807,111.8239975L520.7476807,111.8239975L520.7476807,111.8239975L520.7476807,111.8239975L520.7476807,111.8239975z
	 M524.7869873,132.017395c0-5.0484924,0-10.0972977,0-15.145195l-0.5048218-0.2526016l-11.3587036,1.7672043v3.028801
	c0.7568359,0.2524948,1.513916,0.5047989,2.2714233,0.7570953c0.7570801,0.2519989,1.5142212,0.5054016,2.2717285,0.7574005
	v24.2330933l-5.3011475,2.019104c0,0.5052032,0,1.0100098,0,1.5146027c0,0.5050964,0,1.0099945,0,1.514801l17.6700439-0.0005035
	c0-0.5052032,0-1.0099945,0-1.5148926c0-0.5045013,0-1.0093994,0-1.5145111l-5.3002319-1.7670898
	C524.7869873,142.1147003,524.7869873,137.0657043,524.7869873,132.017395L524.7869873,132.017395L524.7869873,132.017395
	L524.7869873,132.017395L524.7869873,132.017395L524.7869873,132.017395z M556.3394775,146.1524048
	c-1.5148926,0.252594-2.7770996,0.5056915-3.53479,0.7576904c-1.0095215,0.2526093-2.0192261,0.2526093-2.776001,0.2526093
	c-1.767395,0-3.0294189-0.5057068-3.7860107-1.2617035c-0.7576904-1.0102997-1.0098877-2.2723083-1.0098877-3.7863007
	l0.0001831-20.6996994l10.0968018,0.0006027v-3.7860031l-10.0968018-0.0002975v-8.8341064l-0.2525024-0.252594l-0.2525635-0.2526016
	l-3.7861938,1.262001l-2.524353,7.3208008c-1.0093994,0.2519989-1.7670898,0.7567978-2.7761841,1.0093994
	c-0.7572021,0.2526016-1.7672119,0.7570953-2.524292,1.0093994v2.5242996l4.7962036,0.0004959v20.6992035
	c0,1.7671051,0.2526245,3.2814026,0.5045776,4.5438995c0.2526245,1.2619934,0.7571411,2.2713928,1.5151367,3.2810974
	c0.7572021,0.7570953,1.5142822,1.5146027,2.7767944,1.7671051c1.2617188,0.5045929,2.776001,0.5045929,4.543396,0.5045929
	c3.5333862,0,7.0670776-0.7565918,10.8538818-2.524292c-0.2525635-0.7565002-0.2525635-1.2619019-0.505188-2.019104
	C556.5925903,147.4149017,556.3394775,146.6575012,556.3394775,146.1524048L556.3394775,146.1524048L556.3394775,146.1524048
	L556.3394775,146.1524048L556.3394775,146.1524048L556.3394775,146.1524048z M595.2124023,118.8918991
	c0-0.5056992-0.2520142-1.0102997-0.2520142-1.514801l-12.6221313,0.5045013c0,0.5056992,0,1.0102997,0,1.5150986
	c0,0.5046005,0,1.009201,0,1.5149002l4.2908325,1.5139999c-1.2614136,3.7862015-2.5236816,7.5733032-4.0383301,11.3587036
	l-4.0387573,11.3594971l-0.251709-0.0003052c-1.0097046-3.2810974-2.2717285-6.5632935-3.2814331-9.8435974
	c-1.2616577-3.2818909-2.2716675-6.5630035-3.2813721-9.8454971c-0.505127-1.5146027-1.0098877-3.0286026-1.262207-4.2904968
	c-0.2526245-1.5149002-0.505188-2.5242996-0.505188-3.7866058l-11.6104126,0.5052032v3.0296021l3.5336914,1.2616959
	l5.8052979,14.892395c1.7677002,5.0491028,3.7866211,9.8447113,5.8062134,14.8927002l2.524292,0.2525024l-1.7670898,4.5434113
	c-0.2526245,0.5053864-0.505188,1.0099945-0.7572021,1.7670898c-0.2525024,0.5048981-0.7576904,1.2620087-1.0098877,1.7671967
	c-0.505188,0.5051117-1.0100098,1.009903-1.5145874,1.5145111c-0.505127,0.5054016-1.2625122,0.7576904-2.0197144,0.7576904
	l-6.0582275-3.5345001c-1.0093994,0.5051117-1.5144653,1.0097046-2.2713623,1.7667999
	c-0.5048218,0.7574005-0.7571411,1.7677002-0.7571411,2.5246124c0,1.2616882,0.505127,2.5242004,1.7671509,3.2812958
	c1.2616577,0.7572021,2.7767944,1.2617035,4.543396,1.2617035c2.7767944,0,5.0484619-1.009903,6.8152466-2.7765045
	c1.7668457-1.767395,3.2811279-4.2913971,4.543457-7.3202057l5.5532837-13.3780975
	c1.7672119-4.5438995,3.7860107-8.8345032,5.5524902-13.3784027c1.0106201-2.271698,1.7677002-4.2907944,2.7769165-6.0584946
	c1.0098877-1.7665024,2.2716064-3.2814026,3.53479-4.290802
	C595.4649048,119.901001,595.2124023,119.3958969,595.2124023,118.8918991L595.2124023,118.8918991L595.2124023,118.8918991
	L595.2124023,118.8918991L595.2124023,118.8918991L595.2124023,118.8918991z M361.7211914,73.4553986l0.252594-24.9899979
	l6.3105164-1.5145988l-0.2520142-4.290802c0,0-2.7766113,0.2526016-6.3104858,0.2526016
	c-3.5337219,0-12.1164246-0.2526016-12.1164246-0.2526016l-0.252594,3.7863007l5.8059082,1.7671013V70.174202
	c0,1.7666016-0.2520142,3.533699-0.5047913,5.0479965c-0.252594,1.5150986-0.7577209,3.0290985-1.5151978,4.0388031
	c-0.7565002,1.262001-1.7671204,2.0196991-3.281311,2.7764969c-1.2619934,0.7576981-3.0291138,1.0100021-5.0480042,1.0100021
	c-2.271698,0-4.0387878-0.2519989-5.3007813-1.0100021c-1.2620239-0.5045013-2.5242004-1.5139999-3.0296021-2.5236969
	c-0.7566223-1.009903-1.2617188-2.2715988-1.5140076-3.786499c-0.252594-1.5145035-0.252594-3.0291061-0.252594-4.5438995
	l-0.0003052-22.9703026l6.058197-1.514801l-0.2525024-4.0382996c0,0-1.5151978,0.2526016-7.0679016,0.2526016
	c-5.5527954,0-14.3876038-0.2526016-14.3876038-0.2526016l-0.2525024,3.7863007l5.8059082,1.7677002v25.747097
	c0,3.281601,0.5047913,5.8059006,1.76651,7.8255997c1.2626038,2.019104,2.776886,3.5342026,4.5439758,4.7962036
	c1.76651,1.2616959,3.7859192,2.0190964,5.8053284,2.5242004c2.0196838,0.5046005,4.0387878,0.7565994,6.0584717,0.7565994
	c2.2714233,0,4.290802-0.2526016,6.5625-0.7565994c2.271698-0.5056992,4.2914124-1.262001,6.3111267-2.5242004
	c1.7664795-1.262001,3.2812805-3.0297012,4.5432739-5.0485001
	C361.2165833,79.7658005,361.7211914,76.9896011,361.7211914,73.4553986L361.7211914,73.4553986L361.7211914,73.4553986
	L361.7211914,73.4553986L361.7211914,73.4553986L361.7211914,73.4553986z M349.1001892,126.2115021
	c0-3.281105-0.7571106-5.8053055-2.271698-7.3205032c-1.5144958-1.514801-4.0387878-2.2710953-7.0672913-2.2710953
	c-1.0103149,0-2.2723083,0-3.5345154,0.252594c-1.2619934,0.2519989-2.5236816,0.2519989-3.5343018,0.5047989l-5.0478821,4.7960052
	l0,0l0,0l-1.514801-5.0485001l-0.5049133-0.2519989c-1.5144958,0.2519989-3.2810974,0.505394-4.7958984,0.7567978
	c-1.5145874,0.2526016-3.2819824,0.5056992-4.7962036,0.7576981v3.028801l4.7962036,1.262001v24.232605l-5.3007813,1.7675934
	l0.252594,3.028595l17.1642761-0.0005951v-3.0294037l-4.7961731-1.5139923c0-4.2913055,0-8.3301086,0-11.6110077v-9.5926971
	c1.5144958-1.0099945,3.0298767-1.5144958,4.543396-2.0190964c1.514801-0.5056992,2.7767944-0.757103,4.0387878-0.757103
	c2.0195923,0,3.5342102,0.5047989,4.290802,1.5145035c0.7574158,1.0093994,1.2619019,2.7765961,1.2619019,4.796196v17.4174957
	l-4.7955933,1.7666016v3.0296021l16.9125977-0.0005035l0.2519836-3.0293884l-4.7955933-1.5140076L349.1001892,126.2115021
	L349.1001892,126.2115021L349.1001892,126.2115021L349.1001892,126.2115021L349.1001892,126.2115021L349.1001892,126.2115021z
	 M137.8226929,39.1254997L137.8226929,39.1254997c-1.0093994-0.7565002-0.5045013-2.5242004,0.7572021-2.5242004
	c7.8249969,0.7577019,15.3977966,2.0196991,22.9707947,3.7862015v-9.0869999
	c0-5.8059006-4.5438995-10.3493004-10.0966949-10.3493004h-7.825592h-0.251709h-0.2528992
	c-1.5150909,0-2.7767944-1.2616997-2.7767944-2.7763004V2.7774c0-1.5154001,1.2619934-2.7774,2.7767944-2.7774h54.270401
	c1.5151978,0,2.7769012,1.262,2.7769012,2.7769001l-0.0003052,15.6498003c0,1.5144997-1.2617035,2.7764988-2.7767944,2.7764988l0,0
	l0,0l-7.8251038,0.0011005c-5.553299,0-10.0966949,4.7957001-10.0966949,10.3481998v4.291399c0,0.2520027,0,0.2520027,0,0.2520027
	V45.9403c7.0675964,2.5245018,13.8826904,5.5533981,20.1936951,9.0876007
	c4.0388031,2.2710991,8.0776062,5.0479012,11.8643951,7.8250008c0,0,0.2526093,0,0.2526093,0.2519989
	c0.2519989,0.7571983,0,1.5145988-0.5054016,1.7669029c-12.1159058,6.8155975-27.7657013,12.116394-45.4360046,15.3977966
	c-0.7576904,0-1.2616882-0.5046005-1.5144958-1.009201C159.7835999,61.0868988,150.1916962,46.6982994,137.8226929,39.1254997
	L137.8226929,39.1254997L137.8226929,39.1254997L137.8226929,39.1254997L137.8226929,39.1254997z M120.4052963,83.0475006
	c14.1357956-0.2526016,28.0192947-1.262001,40.6397018-3.5342026c-6.0572968-24.989399-22.4656982-42.9116974-41.902298-43.9216995
	v46.4462051C119.3952942,82.5429001,119.9003983,83.0475006,120.4052963,83.0475006L120.4052963,83.0475006L120.4052963,83.0475006
	L120.4052963,83.0475006L120.4052963,83.0475006z M211.0248871,138.8325043c0.2526093,0,0.2526093,0,0.5057068,0
	c0.252594,0.252594,0.252594,1.0102997-0.252594,1.2619934c-3.5335999,2.5242004-7.3200989,5.0485077-11.1063995,7.0675964
	c-7.3202057,4.0388031-15.3978119,7.3209991-23.9797058,10.0967102c0,0.252594,0,0.252594,0,0.252594
	c-8.5820923,23.7277069-31.3009949,39.6306-56.794899,39.6306l-1.5153961,0.0005951
	c-28.0194016,0-51.7462006-17.1648865-61.5909004-41.1451874c-0.2519989,0-0.7565994,0-1.0093994,0
	c-7.3201981-2.5243073-14.1352997-5.5534058-20.1937981-8.8347015c-3.5348015-2.0192108-7.0682011-4.2913971-10.349802-6.5625
	c-0.2525997,0-0.5051994-0.2526093-0.5051994-0.5048981c-0.2520008-0.7577057,0-1.7674103,0.7572002-2.0194092
	c7.5723991-4.0388031,16.6596985-7.3204956,26.5050011-10.0966949v-3.2814026
	c-11.6118011,3.0290985-21.9611015,7.0679016-30.543602,11.8639069c-0.5047989,0.2524872-1.2618999,0.2524872-1.7664986-0.2526093
	C6.5630999,125.706398,0,113.3379974,0,100.4638977c0-12.8735962,6.5630999-25.2416992,18.6795006-35.591301l0,0
	c8.8344002,5.3008041,19.9403,9.5922012,32.5624008,13.1258011v-3.2812958
	c-10.3493004-3.0292053-19.9417019-6.5631027-27.7665005-10.8539009c-1.0094013-0.5054016-1.2617016-1.7671013-0.2520008-2.5245018
	c3.533699-2.5242996,7.5725002-5.0485001,11.8633003-7.3196983c5.3008003-2.7768021,10.8537979-5.3013,16.4082985-7.3207016
	V35.3395996l0,0v-4.0387993c0-5.5531006-4.7961998-10.0962009-10.3493004-10.0962009l-8.0778999-0.0002995l0,0l0,0
	c-1.5147991,0-2.7767982-1.2621994-2.7767982-2.7773991V3.2820001c0-1.5148001,1.2619991-2.7768002,2.7767982-2.7768002
	l82.5417938-0.0006c1.5139999,0,2.7765045,1.2620001,2.7765045,2.7767999v15.1449995
	c0,1.514801-1.2625046,2.7768002-2.7765045,2.7768002l0,0l0,0l-8.0769958,0.0006008
	c-5.8059998,0-10.3493042,4.5433006-10.3493042,10.0960999v5.3011017l0,0c0.7568054,0,1.5140076-0.2526016,2.2717056-0.2526016
	c0.7570953-0.2524986,1.2616959,1.0093994,0.5045013,1.2616997c-1.0093994,0.5049019-1.7665024,1.0093994-2.7765045,1.5149002
	v4.0382004c5.5527954-3.7868004,12.1156006-6.3105011,18.6785965-6.5633011v45.4358978l0,0
	c0,0.7577057-0.5047989,1.2617035-1.262001,1.2617035c-5.8047943,0-11.6103973-0.2514038-17.4165955-0.7565002v3.2813034
	c5.5527954,0.5042953,11.358696,0.7565994,17.1649017,0.7565994c0.7570953,0,1.514595,0.7570953,1.514595,1.5147934v27.0097046
	c0,0.7570953-0.7571945,1.5139999-1.514595,1.5139999c-5.8059006,0-11.6110001,0.2525024-17.1649017,0.7576981v3.2810974
	c5.5527954-0.5045929,11.358696-0.7571945,17.1649017-0.7571945c0.7570953,0,1.514595,0.7571945,1.514595,1.5151978v41.9024963
	c0,0.2526093,0,0.2526093,0,0.2526093c0,0.7570953-0.7571945,1.2613983-1.514595,1.2613983
	c-4.290802-0.2514038-8.5827026-1.5140076-12.3690033-3.5335999c5.5537033,8.8347015,15.651001,14.3874969,26.2516937,14.3874969
	l2.0185089,0.0005035c10.3493042,0,19.6898041-5.0478973,25.495697-13.1251984
	c-6.3105011,1.0093994-12.6210022,2.0184937-18.9320068,2.5236969c-1.0099945,0-1.5139923-1.2617035-0.5045929-1.7669067
	c12.6203918-7.0672913,22.969696-20.9503021,27.7658997-38.6196976c0-0.5046005,0.5039978-0.7572021,1.0097046-0.7572021
	C183.0063934,127.221199,198.6564941,132.2693939,211.0248871,138.8325043L211.0248871,138.8325043L211.0248871,138.8325043
	L211.0248871,138.8325043L211.0248871,138.8325043z M120.9109955,116.1147995
	c13.6306,0.2526016,27.2610016,1.262001,39.6302948,3.0285034c0.7568054,0.252594,1.5140076-0.2514038,1.76651-1.0093994
	c1.2619934-5.552803,1.7671967-11.3587036,1.7671967-17.4172058c0-5.5531006-0.5052032-10.8538971-1.5146027-15.9017944
	c-0.252594-0.7568054-1.0093994-1.262001-1.7677002-1.262001c-12.6203918,2.0190964-26.2507935,3.0293961-40.1345978,3.2810974
	c-0.7576981,0-1.5150986,0.7576981-1.5150986,1.5150986v26.2523041
	C119.3952942,115.3571014,120.1532974,116.1147995,120.9109955,116.1147995L120.9109955,116.1147995L120.9109955,116.1147995
	L120.9109955,116.1147995L120.9109955,116.1147995z M91.6296005,31.3005009v113.5898972
	c0,19.9420013,16.4072952,36.3491974,36.8537979,36.3491974l2.0186005,0.0003052
	c13.8834991,0,26.5050964-7.5724945,32.8152924-19.9411011c0-0.252594,0-0.252594,0.2525024-0.5054932
	c0.5048981,0,1.0093994-0.2519989,1.5146027-0.2519989c-7.8251038,15.9020996-23.7279968,25.9987946-41.902298,25.9987946
	h-1.0100021c-25.7464981,0-46.445694-20.6983032-46.445694-45.940506V35.3392982c0-0.2519989,0-0.2519989,0-0.5048981
	c0.252594-9.5921001,8.3295975-17.4174004,18.1740952-17.4174004l6.5633011,0.0004997
	C94.9104996,19.9421005,91.6296005,25.2430992,91.6296005,31.3005009L91.6296005,31.3005009L91.6296005,31.3005009
	L91.6296005,31.3005009L91.6296005,31.3005009L91.6296005,31.3005009z M112.8327942,6.0591002c0,0-76.9895935,0-76.7360992,0
	v9.0861998l18.9314003-0.0005999c8.5821991,0,16.1547012,5.5539007,19.1840973,13.6311998
	c2.7768021-8.3295994,10.6018066-13.6311998,19.1837006-13.6311998h19.4368973V6.0591002L112.8327942,6.0591002
	L112.8327942,6.0591002L112.8327942,6.0591002L112.8327942,6.0591002z M119.1427002,191.5892029h-1.5134048
	c-33.3200989,0-60.5817947-26.7568054-60.5817947-59.8240967l-0.0004997-95.1635056l0,0V31.3013
	c0-6.0585003-3.533699-11.3591995-8.5816002-13.8838005h6.3103981c9.8436012,0,17.9218025,7.8253002,18.1738014,17.4169006
	c0,0.2526016,0,0.2526016,0,0.5055008v8.0772972v0.2525024v96.9298935c0,26.5051117,21.9602966,48.2127991,48.7173996,48.2127991
	h1.010498c19.6883011,0,37.106102-11.3586884,44.6785965-29.0292969c0.5045013-0.252594,1.0093994-0.252594,1.7664948-0.5054016
	C160.5410004,178.7156982,140.8517914,191.5892029,119.1427002,191.5892029L119.1427002,191.5892029L119.1427002,191.5892029
	L119.1427002,191.5892029L119.1427002,191.5892029z M173.6665955,31.5531006c0-5.5531006,2.7767944-10.6019001,7.0681-13.3787003
	c-4.7964935,1.7670994-8.3300934,6.3109989-8.8347015,11.6110001v13.6306c0.5048981,0,1.2620087,0.2525978,1.7666016,0.5048981
	v-6.8150978c0-0.2525024,0-0.2525024,0-0.2525024V31.5531006L173.6665955,31.5531006L173.6665955,31.5531006L173.6665955,31.5531006
	L173.6665955,31.5531006z M194.617691,5.5542002l-48.7167969-0.0011001v9.3395996h10.348999
	c6.5622101,0,12.1161041,4.2908001,14.3874969,10.0967007c2.271698-6.0585003,7.8251038-10.0967007,14.3881073-10.0967007h9.5921936
	V5.5542002L194.617691,5.5542002L194.617691,5.5542002L194.617691,5.5542002L194.617691,5.5542002z M167.1035004,36.8544006
	L167.1035004,36.8544006v5.3008003c1.0099945,0.2519989,1.7670898,0.5046005,2.5242004,0.7570992V31.3010998
	c0-0.2525997,0-0.2525997,0-0.5051994c-0.2525024-6.3099003-4.5433044-11.3593006-10.0978088-12.8730011
	c4.7962036,2.7765999,7.5727081,8.0771008,7.5727081,13.6304016L167.1035004,36.8544006L167.1035004,36.8544006
	L167.1035004,36.8544006L167.1035004,36.8544006L167.1035004,36.8544006z M443.2540894,121.9200974
	c-1.0093994-1.5144958-2.5242004-2.7767944-4.290802-3.7861938c-1.7670898-1.009407-4.290802-1.5145035-7.3204956-1.5145035
	c-3.2818909,0-5.806488,0.5050964-8.077301,1.5145035c-2.019104,1.0093994-3.7861938,2.5242996-5.0484924,4.2907944
	c-1.2620239,1.7677002-2.0197144,3.7862015-2.5237122,5.8059082c-0.5054016,2.2719879-0.7573853,4.2913971-0.7573853,6.5634003
	c0,2.7767944,0.252594,5.3007965,1.0093994,7.3201904c0.505188,2.2714081,1.5145874,4.0384979,2.7767944,5.553299
	c1.2619934,1.5146027,3.028595,2.7765045,5.0480042,3.5340118c2.019104,0.7567902,4.5433044,1.2618866,7.3204956,1.2618866
	c2.5242004,0,4.7958984-0.2524872,7.0680847-1.0098877c2.2714233-0.7572021,4.2906189-1.7672119,6.0577087-3.0289001
	l-1.2619934-3.7862091c-1.7671204,0.7570953-3.5336914,1.2620087-5.3002014,1.5151062
	c-1.7677002,0.2514954-3.0294189,0.5048981-4.0388184,0.5048981c-2.0196838,0-3.7867737-0.252594-5.0484924-0.756897
	c-1.2619934-0.5057068-2.524292-1.2617035-3.2817078-2.5242004c-0.7570801-1.0097046-1.5150757-2.2723083-1.767395-4.0388031
	c-0.2514038-1.5149078-0.5048828-3.5343018-0.5048828-5.5531006l22.2131958-1.2619934l0.5050964-0.7571106
	c0-1.7670898-0.252594-3.5336914-0.5050964-5.3001938C445.0211792,125.2017975,444.2634888,123.4353027,443.2540894,121.9200974
	L443.2540894,121.9200974L443.2540894,121.9200974L443.2540894,121.9200974L443.2540894,121.9200974z M423.3132019,131.0077057
	c0-1.0100098,0-2.0194092,0.2519836-3.0288086c0.252594-1.0099945,0.5052185-2.0196991,1.2617188-3.0296936
	c0.5053711-1.009407,1.2619934-1.7665024,2.2719727-2.2711029c1.0097046-0.5054016,2.271698-1.0100021,3.7860107-1.0100021
	c1.2619019,0,2.5242004,0.2519989,3.2816162,0.7572021c0.7571716,0.5050964,1.5148926,1.0100021,2.0190735,1.7670975
	c0.5057068,0.757103,0.7577209,1.5145035,1.0103149,2.5242004c0.2519836,1.0094986,0.2519836,2.0196991,0.2519836,2.7769012
	L423.3132019,131.0077057L423.3132019,131.0077057L423.3132019,131.0077057L423.3132019,131.0077057L423.3132019,131.0077057z
	 M382.9248962,88.8531036h3.0296936c0.5044861,0,1.0093994,0,2.0194092,0h3.2816772h3.2816162c1.0091858,0,1.5140076,0,1.7666016,0
	c3.0288086,0,5.553009-0.5057068,7.8249817-1.2617035c2.2717285-0.7576981,4.0394287-1.7670975,5.8059082-3.0290985
	c1.5148926-1.2619019,2.7766113-2.7768021,3.7860107-4.2912979c1.0100098-1.7671051,1.7670898-3.2814026,2.271698-5.0485001
	c0.5044861-1.7666016,1.0093994-3.5343018,1.2616882-5.0480042c0.2525024-1.7677002,0.2525024-3.2814026,0.2525024-4.5438995
	c0-2.7765007-0.2525024-5.5525017-1.0098877-8.3296013c-0.7572021-2.7767982-2.0194092-5.3008003-3.7860107-7.3204994
	c-1.7670898-2.271698-4.0384827-4.0387993-7.0679016-5.300499c-2.7767944-1.262001-6.5632935-2.0196991-10.8544006-2.0196991
	c-0.756897,0-1.5140076,0-2.2713928,0c-0.7565918,0-1.5151062,0-2.2713928,0c-0.7577209,0-1.7669067,0-2.7767944,0
	c-1.0095215,0-2.0197144,0-3.2814026,0l-2.2723083-0.0004997c-0.7571106,0-1.514801,0-2.019104,0
	c-0.7576904,0-1.514801,0-2.2723083,0c-1.0090942,0-2.019104,0-3.0287781,0l-0.5050964,4.0387993l5.3007813,1.5150986
	l0.0003052,35.3388977l-5.8059998,1.7666016l0.5049133,3.7862015c1.2622986,0,2.271698,0,3.2818909,0h2.7770996
	C381.1583862,88.8531036,382.1677856,88.8531036,382.9248962,88.8531036L382.9248962,88.8531036L382.9248962,88.8531036
	L382.9248962,88.8531036L382.9248962,88.8531036L382.9248962,88.8531036z M389.4879761,49.2221985
	c0.505127,0,1.0093994,0,1.5151062,0c0.5046082,0,1.2617188,0,1.76651,0c1.7672119,0,3.7865906,0.2526016,5.5531006,0.7577019
	c1.7670898,0.5046005,3.2814026,1.2617989,4.543396,2.5237007c1.2625122,1.2622986,2.271698,2.7765999,3.0291138,5.0485001
	c0.7576904,2.0191994,1.2616882,4.7959976,1.2616882,8.0774002c0,2.2714005-0.2514954,4.5432968-0.7565918,6.5633011
	c-0.5050964,2.0193939-1.2620239,4.0382004-2.019104,5.5524979c-1.0103149,1.5150986-2.2723083,3.0290985-4.0393982,3.7862015
	c-1.514801,1.0099945-3.5342102,1.514595-6.057312,1.514595c-0.7576904,0-1.7677002,0-2.524292,0
	c-0.7576904,0-1.7677002-0.2519989-2.5242004-0.2519989L389.4879761,49.2221985L389.4879761,49.2221985L389.4879761,49.2221985
	L389.4879761,49.2221985L389.4879761,49.2221985L389.4879761,49.2221985z M421.0409851,85.3189011l0.2525024,4.0387955
	l19.1843872,0.0003052l0.2520142-4.290802l-6.5631104-1.5146027l-0.5047913-28.7763977l0.2525024,0.0004997l9.5916138,12.8724022
	l17.1643982,22.7185974l5.0478821-1.0093994c0-0.7576981,0-2.271698,0-4.290802c0-2.0199966,0-4.5439987,0.252594-7.3201981
	c0-2.7768021,0-5.5533981,0.2525024-8.8348007c0-3.0292969,0-6.0578995,0.2520142-8.8344002
	c0-2.7767982,0-5.0485001,0.252594-7.3201981c0-2.0196991,0-3.5348015,0-4.290802l6.8150024-1.5147972l-0.2525024-4.290802
	l-18.9302979-0.0016975l-0.252594,3.7861977l6.3110046,1.7677002l0.505188,24.7374039l-0.2532043-0.0006027l-8.0769958-10.8540993
	l-11.3590088-15.1447029c-0.5050964-0.5056992-0.7570801-1.2619972-1.2616882-1.7677002
	c-0.5054016-0.7565994-1.0100098-1.5139999-1.2619934-2.5241966c-1.2620239,0-3.2814026,0-6.0585022,0.2524986
	c-3.2814026,0-6.5630188,0-10.0967102,0l-0.5047913,3.7859993l6.8153076,2.0196991l-0.7577209,34.581501L421.0409851,85.3189011
	L421.0409851,85.3189011L421.0409851,85.3189011L421.0409851,85.3189011L421.0409851,85.3189011L421.0409851,85.3189011z
	 M272.1117859,85.0671997l0.252594,4.290802c0,0,7.0673218-0.2526016,10.854126-0.2526016
	c3.7859802,0,11.1063843,0.2526016,11.1063843,0.2526016l0.2520142-4.290802l-6.5635986-1.5150986V69.921402
	c0.7576904,0.2526016,3.0296936,0.7570953,6.0584717,0.7570953l13.6307068,20.9512024l8.3296204-1.7666016l0.7565918-2.7767944
	l-14.1361084-17.9218063c5.0487976-2.0193939,10.0967102-6.0583992,8.5827026-15.6499977
	c-1.767395-11.6110001-14.1358032-10.6018982-17.4169006-10.6018982c-3.5342102,0-12.368988,1.5147972-19.9419861-0.2526016
	l-1.0100098,4.2914009c0,0,2.0196838,1.0093994,5.3008118,1.7665977l0.0004883,34.8349037L272.1117859,85.0671997
	L272.1117859,85.0671997L272.1117859,85.0671997L272.1117859,85.0671997L272.1117859,85.0671997z M300.8873901,56.5424004
	c0,4.5439987-2.5242004,9.0872993-12.8735046,7.3204994V49.475399c0.252594,0,0.7577209,0,1.010498,0
	C298.6163025,48.4654007,300.8873901,52.2515984,300.8873901,56.5424004L300.8873901,56.5424004z"/>
</svg>
